<?xml version="1.0" encoding="UTF-8" standalone="no"?>
<svg
   xmlns:dc="http://purl.org/dc/elements/1.1/"
   xmlns:cc="http://creativecommons.org/ns#"
   xmlns:rdf="http://www.w3.org/1999/02/22-rdf-syntax-ns#"
   xmlns:svg="http://www.w3.org/2000/svg"
   xmlns="http://www.w3.org/2000/svg"
   xml:space="preserve"
   style="enable-background:new 0 0 2256 1080;"
   viewBox="0 0 2256 1080"
   y="0px"
   x="0px"
   id="Layer_1"
   version="1.1"><metadata
     id="metadata137"><rdf:RDF><cc:Work
         rdf:about=""><dc:format>image/svg+xml</dc:format><dc:type
           rdf:resource="http://purl.org/dc/dcmitype/StillImage" /></cc:Work></rdf:RDF></metadata><defs
     id="defs135" /><style
     id="style2"
     type="text/css">
	.st0{display:none;}
	.st1{display:inline;}
	.st2{fill:#0A4C75;}
	.st3{display:inline;fill:none;stroke:#0A4C75;stroke-width:3;stroke-miterlimit:10;}
	.st4{display:inline;fill:none;}
	.st5{display:inline;fill:#0A4C75;}
	.st6{display:none;fill:#0A4C75;}
	.st7{fill:none;stroke:#23282B;stroke-width:2;stroke-miterlimit:10;}
	.st8{fill:#222526;}
</style><g
     id="g44"
     class="st0"><g
       id="g26"
       class="st1"><path
         id="path4"
         d="M638.64,381.21l-0.05,75.96H439.33c-52-3.08-78.95-19.11-81.53-76.04L638.64,381.21z"
         class="st2" /><rect
         id="rect6"
         height="122.56"
         width="13.29"
         class="st2"
         y="604.29"
         x="544.8" /><rect
         id="rect8"
         height="122.56"
         width="13.29"
         class="st2"
         y="604.29"
         x="514.16" /><rect
         id="rect10"
         height="122.56"
         width="13.29"
         class="st2"
         y="604.29"
         x="483.52" /><path
         id="path12"
         d="M899.89,480.91c-0.51-59.23-35.74-102.13-136.51-99.7l-96.9,0.43v89.06    c-343.2,4.63-299.47-46.94-301.96,253.19h71.67V541.11H571.9v-53.33h24.63v27.52h32.03v210.88h8.24v-36.14h29.68v40.74h68.33    V588.28l99.95,139.88h81.95l-99.5-141.42C887.64,572.83,900.66,515.64,899.89,480.91z M666.48,677.84H636.8v-47.61h29.68V677.84z     M666.48,617.76H636.8v-47.34h29.68V617.76z M666.48,557.92H636.8v-42.61h29.68V557.92z M805.15,525.7    c-10.24,2.45-59.3,0.81-70.34,1.26v-77.88c11.57,0.51,56.65-1.72,68.63,2.41C838.14,463.37,835.98,511.16,805.15,525.7z"
         class="st2" /><path
         id="path14"
         d="M1690.61,381.21v86.39c-26.85,1.96-44.45,4.67-69.12,7.78v-94.17H1690.61z"
         class="st2" /><path
         id="path16"
         d="M1881.91,381.21v94.08c-22.09-3.81-40.15-8.13-70.12-8.8v-85.28H1881.91z"
         class="st2" /><path
         id="path18"
         d="M1813.6,648.22c29.24-6.82,46.69-17.12,68.31-25.6v103.31h-70.12v-77.29    C1812.39,648.5,1813,648.36,1813.6,648.22z"
         class="st2" /><path
         id="path20"
         d="M1926.23,588.53c-51.31,40.17-226.05,83.18-276.5,75.35c1.57,0.37,30.38,7.34,40.88,10.87v51.18h-69.12v-85.7    c431.51-30.98,361.14-183.02,85.98-138.12c88.34-5.62,230.55,12.51,159.57,53.36c-84.77,48.79-210.64,46.23-245.55,51.74v-64.08    c27.86-3.06,45.42-6.3,69.12-7.26V579c41.33-0.45,115.79-9.64,154.47-27.9c70.38-36.34-151.82-32.54-265.53-10.35    c-13.28-13.37-39.91-26.19-58.81-36.22C1788.6,432.63,2058.04,486.75,1926.23,588.53z"
         class="st2" /><path
         id="path22"
         d="M975.82,730.99c-1.03,1-2.06,2.02-3.08,3.03C973.7,733.02,974.73,732.01,975.82,730.99z"
         class="st2" /><path
         id="path24"
         d="M1458.53,562.62c-198.98,38.37-419.72,112.91-482.66,168.33c121.28-113.62,285.76-148.59,440-197.88    C1428.13,544.23,1443.43,554.74,1458.53,562.62z"
         class="st2" /></g><line
       id="line28"
       y2="325.3"
       x2="1881.91"
       y1="325.3"
       x1="1270.66"
       class="st3" /><line
       id="line30"
       y2="325.3"
       x2="1027.55"
       y1="325.3"
       x1="354.52"
       class="st3" /><line
       id="line32"
       y2="776.57"
       x2="1881.91"
       y1="776.57"
       x1="1270.66"
       class="st3" /><line
       id="line34"
       y2="776.57"
       x2="1027.55"
       y1="776.57"
       x1="354.52"
       class="st3" /><path
       id="path36"
       d="M1318.06,556.15c21.42-6.53,39.59-11.91,60.77-18.27 M1306.69,605.24c21.98-6,45.25-12.02,67.68-17.41    M986.5,711.7c14.41-12.54,31.45-25.38,49.12-36.97 M1058.38,690.79l-59.73,31.57"
       class="st4" /><path
       id="path38"
       d="M1378.83,537.88c-22.51,6.77-45.2,13.47-70.05,21.11c11.86-121.01-105.07-210.71-217.87-170.95   c-121.41,44.35-145.92,201.87-47.36,281.58c-19.55,12.34-39.4,26.72-57.05,42.08c-123.67-118.3-83.7-315.7,64.73-382.36   C1207.01,261.27,1375.61,373.59,1378.83,537.88z"
       class="st5" /><path
       id="path40"
       d="M998.65,722.36c139.72,112.21,340.98,35.02,375.72-134.53c-25.27,6.07-52.01,13.03-78.71,20.45   c-39.79,89.28-146.47,121.68-227.04,77.96C1062.47,688.03,1005.51,718.9,998.65,722.36z"
       class="st5" /><path
       id="path42"
       d="M1502.39,726.79c-53.52,0-103.05-37.52-120.45-91.24l-3.31-10.22l60.32-16.99l3.71,7.95   c18.74,40.12,44.48,46.11,58.15,46.11c0,0,0,0,0,0c20.95,0,39.86-13.47,43.98-31.33c4.48-19.39-9.98-38.82-39.66-53.33   c-6.74-3.08-13.2-5.86-19.46-8.56c-18.89-8.15-35.2-15.18-48.46-25.57c-19.82-15.11-33.21-35.3-37.71-56.85   c-4.58-21.91,0.14-44.36,13.28-63.21l0.07-0.11c19.02-26.55,50.37-41.78,86.01-41.78c39.46,0,77.93,18.2,100.41,47.49l6.16,8.03   l-49.66,39.8l-6.45-8.15c-16.47-20.79-37.24-23.9-48.15-23.9c-16.58,0-31.91,7.14-37.26,17.37c-3.38,6.46-2.43,13.66,2.81,21.42   c9.25,10.57,24.47,17.35,43.68,25.9c3.92,1.75,7.97,3.55,12.21,5.49c52.23,22.85,81.02,55.73,85.58,97.71   c4.21,36.07-10.41,69.8-40.12,92.46l-0.25,0.18c-19.45,13.95-42.08,21.32-65.41,21.33C1502.4,726.79,1502.4,726.79,1502.39,726.79z   "
       class="st5" /></g><path
     id="path46"
     d="M2061.76,635.06c-62.8,49.16-276.69,101.82-338.44,92.23c1.92,0.45,37.19,8.98,50.04,13.3v62.64h-84.6v-104.9  c528.17-37.92,442.03-224.02,105.24-169.06c108.13-6.88,282.2,15.32,195.32,65.32c-103.76,59.72-257.83,56.59-300.56,63.33v-76.43  c34.1-3.75,55.59-7.71,84.6-8.89v50.79c50.59-0.55,141.73-11.79,189.07-34.15c86.14-44.49-184.38-40.1-323.57-12.94  c-16.25-16.36-38.5-30.15-71.05-44.69C1895.67,443.61,2223.1,510.48,2061.76,635.06z"
     class="st6" /><g
     id="g130"><g
       id="g118"><path
         id="path48"
         d="M1369.51,708.02c-11.05-13.61-21.81-32.33-28.1-49.89c-123.97,202.04-419.51,141.7-454.11-87.04    c-10.86,7.87-23.28,14.11-37.22,18.69c-7.82,5.28,128.94,185.35,123.93,182.21h-38.96    C1073.34,902.51,1277.98,847.31,1369.51,708.02z"
         class="st8" /><path
         id="path50"
         d="M1374.17,713.61c-47.15,70.35-121.9,120.63-208.76,135.34c90.57-5.17,170.48-51.58,222.36-121.33    C1383.82,723.97,1379.1,719.26,1374.17,713.61z"
         class="st8" /><path
         id="path52"
         d="M1155.47,304.74c-85.2-11.06-175.4,29.75-223.24,102.29c2.81,8.31,4.83,17.2,6.05,26.64    c0.46,0.23,2.93,1.52,4.36,2.26C979.73,342.82,1062.38,302.26,1155.47,304.74z"
         class="st8" /><path
         id="path54"
         d="M1382.24,376.15c4.21-5.39,8.82-10.41,13.81-15.03c-51.43-76.21-135.1-127.55-230.64-133.01    C1257.41,243.69,1335.83,299.18,1382.24,376.15z"
         class="st8" /><path
         id="path56"
         d="M929.23,399.09c120.37-167.49,366.83-117.54,429.81,58.22c-2.94-25.55,3.48-52.72,18.72-75.05    c-117.11-189.5-364.09-203.01-480.45-25.95C911.5,367.85,922.16,382.15,929.23,399.09z"
         class="st8" /><path
         id="path58"
         d="M1377.23,483.43c-0.16-0.4-0.33-0.8-0.49-1.2C1376.9,482.63,1377.06,483.03,1377.23,483.43z"
         class="st8" /><path
         id="path60"
         d="M893.73,566.09c15.87,133.75,137.59,221.35,261.68,206.24c-162.64,3.84-234.77-102.43-231.22-244.91    C917.52,541.11,905.89,556.14,893.73,566.09z"
         class="st8" /><path
         id="path62"
         d="M1376.43,481.44c-0.32-0.82-0.63-1.65-0.93-2.48C1375.79,479.79,1376.1,480.61,1376.43,481.44z"
         class="st8" /><path
         id="path64"
         d="M1376.74,482.23c-0.11-0.26-0.21-0.53-0.31-0.79C1376.53,481.7,1376.63,481.97,1376.74,482.23z"
         class="st8" /><path
         id="path66"
         d="M1375.49,478.96c-0.01-0.04-0.03-0.08-0.04-0.11C1375.46,478.88,1375.48,478.92,1375.49,478.96z"
         class="st8" /><path
         id="path68"
         d="M1375.45,478.84c-0.35-0.97-0.69-1.95-1.01-2.93C1374.76,476.89,1375.1,477.86,1375.45,478.84z"
         class="st8" /><path
         id="path70"
         d="M1420.59,603.42c1.59-0.45,4.75-1.33,5.46-1.54c3.1,6.54,8.78,19,11.65,24.54    c5.69-19.81,9.5-41.66,11.07-60.52c-7.68-3.6-15.01-7.32-21.88-11.41C1426.09,571.05,1423.69,588.86,1420.59,603.42z"
         class="st8" /><path
         id="path72"
         d="M1420.08,550.23c-22.97-15.2-41.62-36.5-51.84-59.58c8.66,43.19,5.12,89.97-9.6,130.21    c6.55-1.84,48.44-13.65,54.34-15.3C1417.2,586.58,1419.34,568.56,1420.08,550.23z"
         class="st8" /><path
         id="path74"
         d="M628.84,426.41l0.06-92.97l-320.74-0.1c3.38,63.16,22.81,88.16,91.4,91.63L628.84,426.41z"
         class="st8" /><rect
         id="rect76"
         height="150.01"
         width="16.27"
         class="st8"
         y="606.49"
         x="513.04" /><rect
         id="rect78"
         height="150.01"
         width="16.27"
         class="st8"
         y="606.49"
         x="475.54" /><rect
         id="rect80"
         height="150.01"
         width="16.27"
         class="st8"
         y="606.49"
         x="438.04" /><path
         id="path82"
         d="M1874.5,761.06h85.82V593.82c-18.08-14.46-48.29-20.29-85.82-28.25V761.06z"
         class="st8" /><path
         id="path84"
         d="M1960.32,335.69l-85.82,0.57v113.6c34.97,8,59.71,16.09,85.82,26.42V335.69z"
         class="st8" /><path
         id="path86"
         d="M1737.87,621.4v46.98c42.92,3.53,85.45,4.87,123.63,4.07v-17.88c-32.35-1.58-63.16-6.19-94.31-8.14    c31.25-0.79,64.27,1.04,94.31-0.22v-31.87C1818.81,620.42,1779.48,622.23,1737.87,621.4z"
         class="st8" /><path
         id="path88"
         d="M1673.54,545.44c0,0,29.38,1.7,52.64,11.87v203.74h-84.6V507.1c165.38-10.58,460.89,52.88,331.75,108.12    v-18.58c40.13-18.39-103.7-62.56-238.22-58.7C1682.03,539.46,1681.84,543.68,1673.54,545.44z"
         class="st8" /><path
         id="path90"
         d="M1625.26,568.88c1.1,0.17,2.2,0.33,3.31,0.49C1627.58,569.14,1626.48,568.98,1625.26,568.88z"
         class="st8" /><g
         id="g98"><path
           id="path92"
           d="M599.24,243.81c-11.06-9.82-99.06-50.62-100.62-51.39c-1.56-0.77-3.14-1.92-3.31-2.31     c-0.22-0.5,0.8-0.44,2.06-0.41c82.06,17.56,111.32,29.54,123.24,31.28c4.32,0.63,2.99-0.23,5.83-2.44     c4.31-3.35,9.28-10.22,22.1-21.3l-168.77-14.13c23.73,24.1,85.18,86.53,108.32,110.03C590.1,284.26,597.31,252.36,599.24,243.81z     "
           class="st8" /><path
           id="path94"
           d="M636.33,271.92c-3.43-12.75-9.39-34.63-13.05-48.2l0.35-0.32c0,0-0.01-0.02-0.02-0.07l-121.77-31.72     c-0.1,0.27,0,0.03-0.29,0.78c61.21,29.04,84.06,39.56,100.69,50.71C602.24,243.1,623.32,259.65,636.33,271.92z M507.98,194.36     l114.04,30.61c3.06,11.45,8.31,31.02,11.4,42.57C600.13,229.12,541.7,212.35,507.98,194.36z"
           class="st8" /><path
           id="path96"
           d="M634.11,271.41c-1.31-0.31-34.53-8.4-36.05-8.77c1.22-5.44,2.48-11.99,3.82-17.93     C601.88,244.71,628.31,266.06,634.11,271.41z"
           class="st8" /></g><path
         id="path100"
         d="M762.36,328.14c3.48-0.03,21.43-0.02,23.15,0c-69.28-32.43-101.74-44.46-147.06-60.61    C678.49,287.34,701.26,300.53,762.36,328.14z"
         class="st8" /><path
         id="path102"
         d="M1357.39,589.8c-145.67-30.85-287.19-80.2-418.47-150.24c0.82,9.29,0.82,14.78,0.76,21.86    c126.12,75.34,263.81,130.17,405.74,166.47C1350.53,615.55,1354.74,601.76,1357.39,589.8z"
         class="st8" /><path
         id="path104"
         d="M1524.48,661.91c15.5-11.11,21.34-28.7,10.04-45.55c-30.59-2.71-53.47-5.51-83.9-10.15    c-1.51,7.15-5.16,22.54-7.15,29.49c5.25,10.04,5.36,9.14,11.83,15.84v0.01C1477.21,655.27,1502.89,659.18,1524.48,661.91z"
         class="st8" /><path
         id="path106"
         d="M1539.65,604.95c-0.11-0.13-0.23-0.26-0.35-0.39c0.32,0.37,0.63,0.74,0.93,1.12    C1540.04,605.44,1539.85,605.19,1539.65,604.95z"
         class="st8" /><path
         id="path108"
         d="M1369.43,447.5c0.08,7.7,1.09,15.14,3.09,21.92C1370.68,462.25,1369.63,454.92,1369.43,447.5z     M1622.09,594.59c-29.71-93.38-127.21-90.03-163.7-130.66c-41.05-40.86,59.02-83.77,105.75-10.96l61.24-49.08    c-48.5-75.36-173.6-96.07-233.21-22.51c-13.18,15.09-21.15,37.26-22.54,58.47c0.19-4.43,0.7-8.86,1.51-13.28    c-1.35,7.01-1.91,14.01-1.71,20.93c-0.03-2.45,0.03-4.94,0.19-7.44c-0.85,20.19,4.61,40.22,15.09,58.11    c-1.93-3.2-3.69-6.46-5.25-9.74c12.95,27.69,37.43,50.09,66.13,63.85c-0.41-0.2-0.81-0.41-1.21-0.62    c47.63,22.83,134.64,47.32,97.83,108.26c0.63-1.16-1.86,2.49-0.26,0.45c-24.35,36.98-88.08,21.19-108.25-18.87l-0.26-0.5    c-5.43-8.68-8.21-15.1-13.39-26c-6.14,1.73-66.57,18.74-74.39,20.94C1405.08,839.38,1673.76,770.36,1622.09,594.59z     M1419.39,536.3c0.22,0.15,0.73,0.52,2.5,1.83C1421.04,537.54,1420.22,536.93,1419.39,536.3z"
         class="st8" /><path
         id="path110"
         d="M912.73,390.8c-0.37-0.58-0.42-1.01-3.55-5.66C910.43,386.98,911.61,388.87,912.73,390.8z"
         class="st8" /><path
         id="path112"
         d="M951.62,759.27c-37.65-53.1-87.7-123.23-124.14-174.94c19.31-3.76,56.36-25.5,63.88-31.16    c31.69-30.5,44.47-81.62,34.75-125.86v-0.01h-0.01l-8.12-25.7c-42.36-96.58-196.85-62.81-275-68.31V442.3    c-253.69-0.26-334.82-22.86-335.02,68.83l-2.58,249.93h78.72V538.49h170.11v-88.28h11.15v29.69h51.2v280.75h10.09v-49.87h16.33    v49.87h83.63V586.22l125.91,174.77h100.31L951.62,759.27z M642.98,695.84h-16.33v-58.28h16.33V695.84z M642.98,622.3h-16.33    v-57.95h16.33V622.3z M642.98,549.05h-16.33V481.9h16.33V549.05z M798.75,510.94l-72.14,0.22v-95.33    c172.86-15.96,126.22,95.33,77.82,94.96C803.79,510.82,799.43,510.91,798.75,510.94z"
         class="st8" /><path
         id="path114"
         d="M945.64,733.35l0.87,1.23l-0.84-1.24C945.66,733.34,945.65,733.34,945.64,733.35z"
         class="st8" /><path
         id="path116"
         d="M1973.32,664.3v-28.83c179.47-77.54-107.26-178.16-331.75-174.96V336.26h84.6v98.17    c93.08,8.64,253.91,40.82,310.43,91.83C2090.4,574.82,2045.28,634.93,1973.32,664.3z"
         class="st8" /></g><g
       id="g128"><path
         id="path120"
         d="M1859.96,830.83v25.14h-26.44v-24.44c0-3.78,0.37-6.81,1.12-9.09c0.75-2.28,1.79-4.21,3.13-5.78    c1.34-1.57,2.81-2.87,4.43-3.9c1.61-1.02,3.11-2.11,4.49-3.25c1.38-1.14,2.52-2.56,3.42-4.25c0.9-1.69,1.36-4.03,1.36-7.02v-10.39    c0-3.54-0.32-5.8-0.94-6.79c-0.63-0.98-1.61-1.48-2.95-1.48c-1.34,0-2.34,0.49-3.01,1.48c-0.67,0.99-1,3.25-1,6.79v12.63h-9.33    v-13.81c0-10.94,4.45-16.41,13.34-16.41c4.56,0,7.91,1.38,10.03,4.13c2.13,2.76,3.19,6.89,3.19,12.4v12.87c0,3.3-0.38,6-1.13,8.09    c-0.75,2.09-1.68,3.88-2.79,5.37c-1.35,1.81-2.85,3.29-4.52,4.43c-1.66,1.14-3.23,2.36-4.69,3.66c-1.47,1.3-2.69,2.85-3.68,4.66    c-0.99,1.81-1.49,4.25-1.49,7.32v13.46h7.79v-15.82H1859.96z" /><path
         id="path122"
         d="M1880.14,770.27c9.13,0,13.69,4.29,13.69,12.87v61.03c0,8.66-4.53,12.99-13.58,12.99c-9.13,0-13.69-4.29-13.69-12.87    v-61.03C1866.57,774.6,1871.09,770.27,1880.14,770.27z M1880.14,779.6c-2.75,0-4.13,1.58-4.13,4.72v58.79    c0,3.15,1.42,4.72,4.25,4.72c2.75,0,4.13-1.57,4.13-4.72v-58.79C1884.39,781.17,1882.98,779.6,1880.14,779.6z" /><path
         id="path124"
         d="M1926.06,830.83v25.14h-26.44v-24.44c0-3.78,0.37-6.81,1.12-9.09c0.75-2.28,1.79-4.21,3.13-5.78    c1.34-1.57,2.81-2.87,4.43-3.9c1.61-1.02,3.11-2.11,4.49-3.25c1.38-1.14,2.52-2.56,3.42-4.25c0.9-1.69,1.36-4.03,1.36-7.02v-10.39    c0-3.54-0.32-5.8-0.94-6.79c-0.63-0.98-1.61-1.48-2.95-1.48c-1.34,0-2.34,0.49-3.01,1.48c-0.67,0.99-1,3.25-1,6.79v12.63h-9.33    v-13.81c0-10.94,4.45-16.41,13.34-16.41c4.56,0,7.91,1.38,10.03,4.13c2.13,2.76,3.19,6.89,3.19,12.4v12.87c0,3.3-0.38,6-1.13,8.09    c-0.75,2.09-1.68,3.88-2.79,5.37c-1.35,1.81-2.85,3.29-4.52,4.43c-1.66,1.14-3.23,2.36-4.69,3.66c-1.47,1.3-2.69,2.85-3.68,4.66    c-0.99,1.81-1.49,4.25-1.49,7.32v13.46h7.79v-15.82H1926.06z" /><path
         id="path126"
         d="M1946.25,770.27c9.13,0,13.69,4.29,13.69,12.87v61.03c0,8.66-4.53,12.99-13.58,12.99c-9.13,0-13.69-4.29-13.69-12.87    v-61.03C1932.67,774.6,1937.2,770.27,1946.25,770.27z M1946.25,779.6c-2.75,0-4.13,1.58-4.13,4.72v58.79    c0,3.15,1.42,4.72,4.25,4.72c2.75,0,4.13-1.57,4.13-4.72v-58.79C1950.5,781.17,1949.08,779.6,1946.25,779.6z" /></g></g></svg>